<svg width="77" height="103" viewBox="0 0 77 103" fill="none" xmlns="http://www.w3.org/2000/svg">
<rect y="95" width="77" height="8" fill="#868686"/>
<path d="M0 95H77L71 86H6L0 95Z" fill="#B3B3B3"/>
<path fill-rule="evenodd" clip-rule="evenodd" d="M24 0C18.4772 0 14 4.47715 14 10V12H13.6529C7.8816 12 3.30836 16.8719 3.6729 22.6317L8.00001 91H14H63H69L73.3271 22.6316C73.6917 16.8718 69.1184 12 63.3471 12H63V10C63 4.47715 58.5229 0 53 0H24Z" fill="url(#paint0_radial_11_25)"/>
<path fill-rule="evenodd" clip-rule="evenodd" d="M18.2491 17.3558L17.33 17.4304C12.4924 17.8233 8.77737 22.0346 9.08967 26.9689L12.8258 86H65.462L69.1981 26.9689C69.5104 22.0346 65.7954 17.8233 60.9578 17.4304L60.0387 17.3558V15.6765C60.0387 10.7059 56.0093 6.67645 51.0387 6.67645H27.2491C22.2785 6.67645 18.2491 10.7059 18.2491 15.6765V17.3558ZM66.5 86H12L8.09167 27.0321C7.74462 21.5488 11.8726 16.8703 17.2491 16.4337V15.6765C17.2491 10.1536 21.7263 5.67645 27.2491 5.67645H51.0387C56.5615 5.67645 61.0387 10.1536 61.0387 15.6765V16.4337C66.4152 16.8703 70.5432 21.5488 70.1961 27.0321L66.5 86Z" fill="#858585"/>
<path d="M34.1 42.56C34.1 44.8667 33.0933 46.32 31.08 46.92L34.74 52H31.74L28.4 47.3H25.3V52H22.94V38.02H28.14C30.2733 38.02 31.8 38.38 32.72 39.1C33.64 39.82 34.1 40.9733 34.1 42.56ZM28.24 45.16C29.5733 45.16 30.48 44.9533 30.96 44.54C31.44 44.1267 31.68 43.4667 31.68 42.56C31.68 41.64 31.4333 41.0133 30.94 40.68C30.4467 40.3333 29.5667 40.16 28.3 40.16H25.3V45.16H28.24ZM37.4908 38.02H39.8508V52H37.4908V38.02ZM48.5213 38.02C50.6413 38.02 52.1879 38.4267 53.1613 39.24C54.1346 40.0533 54.6213 41.3067 54.6213 43C54.6213 44.6933 54.1213 45.9333 53.1213 46.72C52.1346 47.5067 50.6146 47.9 48.5613 47.9H46.0813V52H43.7213V38.02H48.5213ZM48.8213 45.76C50.1279 45.76 51.0146 45.5133 51.4813 45.02C51.9613 44.5133 52.2013 43.78 52.2013 42.82C52.2013 41.8467 51.9013 41.16 51.3013 40.76C50.7013 40.36 49.7613 40.16 48.4813 40.16H46.0813V45.76H48.8213Z" fill="#333333"/>
<defs>
<radialGradient id="paint0_radial_11_25" cx="0" cy="0" r="1" gradientUnits="userSpaceOnUse" gradientTransform="translate(38.5 45.5) rotate(90) scale(45.5 28.7025)">
<stop stop-color="#D9D9D9"/>
<stop offset="1" stop-color="#969696"/>
</radialGradient>
</defs>
</svg>
